<?xml version="1.0" encoding="UTF-8"?>
<svg version="1.1" xmlns="http://www.w3.org/2000/svg" width="2000" height="2000">
<path d="M0 0 C24.09 0 48.18 0 73 0 C75.61886978 5.892457 78.13335933 11.73769872 80.44140625 17.74609375 C80.76094772 18.57277557 81.0804892 19.3994574 81.40971375 20.25119019 C82.46312559 22.97900964 83.51295435 25.70819088 84.5625 28.4375 C85.31668462 30.39414252 86.07091751 32.35076644 86.82519531 34.30737305 C93.55260836 51.77513933 100.20032161 69.27309217 106.83982849 86.77441406 C112.33271032 101.25265625 117.84914957 115.72181143 123.375 130.1875 C123.80632233 131.31677917 124.23764465 132.44605835 124.68203735 133.60955811 C128.26260236 142.98406448 131.84422348 152.35816722 135.42608643 161.73217773 C138.30436193 169.2648617 141.18224533 176.7976952 144.05963135 184.33071899 C145.39727353 187.83220109 146.73548689 191.33346451 148.07373047 194.8347168 C150.03975429 199.97972718 152.00234607 205.12603185 153.96160889 210.27362061 C154.63716503 212.0473476 155.3137463 213.8206846 155.99151611 215.59356689 C156.86338345 217.87499578 157.73118667 220.15792305 158.59765625 222.44140625 C158.84728622 223.09197495 159.0969162 223.74254364 159.35411072 224.41282654 C161 228.77099553 161 228.77099553 161 231 C161.66 231 162.32 231 163 231 C163.10908691 230.32622314 163.21817383 229.65244629 163.33056641 228.95825195 C164.13768631 225.39155907 165.38832323 222.06680256 166.7109375 218.66796875 C166.99019577 217.94141083 167.26945404 217.21485291 167.55717468 216.46627808 C168.49210636 214.03831783 169.43333517 211.6128561 170.375 209.1875 C171.04884518 207.44396708 171.72258947 205.70039516 172.39624023 203.95678711 C178.33633052 188.60958844 184.39287959 173.3085252 190.46313477 158.01245117 C196.611007 142.52057433 202.72209425 127.01455697 208.8125 111.5 C209.26594788 110.34498993 209.71939575 109.18997986 210.18658447 107.99996948 C212.03463554 103.29248326 213.88254203 98.58494036 215.73013306 93.87727356 C218.91184251 85.77054258 222.0959582 77.66476085 225.28172493 69.55962372 C226.03570819 67.64134651 226.78964405 65.72305069 227.54356384 63.80474854 C228.03970331 62.54235838 228.53584284 61.27996824 229.03198242 60.01757812 C229.27531783 59.39842907 229.51865324 58.77928001 229.76936245 58.14136887 C230.95561728 55.12308413 232.1419882 52.10484511 233.32852173 49.08666992 C238.57757726 35.73418133 243.81299533 22.37672902 249 9 C249.66 9 250.32 9 251 9 C256.10145433 21.90788485 260.93487972 34.90303885 265.67483521 47.94760132 C267.76436304 53.69719003 269.86080087 59.44425849 271.95703125 65.19140625 C272.38207443 66.35702591 272.80711761 67.52264557 273.24504089 68.72358704 C277.31944006 79.88987997 281.43520061 91.0406718 285.5625 102.1875 C291.37438976 117.888444 297.16715721 133.59623602 302.9375 149.3125 C303.49866516 150.84080948 303.49866516 150.84080948 304.07116699 152.3999939 C306.34040841 158.58048536 308.60905909 164.76119355 310.87756348 170.94195557 C314.18819655 179.96167547 317.50005398 188.98094574 320.8125 198 C321.17882538 198.99746246 321.54515076 199.99492493 321.9225769 201.02261353 C328.54601973 219.05604438 335.18588974 237.08340508 341.83035278 255.10910034 C346.56612225 267.95676177 351.29854398 280.80561969 356.015625 293.66015625 C356.4182959 294.7572995 356.8209668 295.85444275 357.23583984 296.98483276 C359.11738909 302.11185343 360.99801001 307.23921118 362.87695312 312.3671875 C363.5585028 314.22529378 364.24014183 316.08336729 364.921875 317.94140625 C365.24865234 318.833367 365.57542969 319.72532776 365.91210938 320.64431763 C367.75050622 325.64893624 369.61805794 330.64126276 371.51367188 335.62451172 C371.9307843 336.72415756 372.34789673 337.82380341 372.77764893 338.95677185 C373.58740564 341.08786764 374.40132645 343.21738702 375.21990967 345.34510803 C375.58336487 346.30235275 375.94682007 347.25959747 376.32128906 348.24584961 C376.64583069 349.09279892 376.97037231 349.93974823 377.30474854 350.81236267 C378 353 378 353 378 356 C345.99 356 313.98 356 281 356 C279.22544224 324.09759069 279.22544224 324.09759069 278.40844727 309.39990234 C277.8598835 299.53133644 277.31119791 289.66277736 276.76193237 279.79425049 C276.21070036 269.8901985 275.65980133 259.98612805 275.109375 250.08203125 C275.06380943 249.2621661 275.01824385 248.44230095 274.9712975 247.5975914 C273.82566347 226.98113621 272.68791448 206.36429942 271.57242775 185.74618721 C271.39418564 182.45251461 271.21555346 179.1588634 271.03678894 175.86521912 C270.92384849 173.7836004 270.81091797 171.70198115 270.69799805 169.62036133 C270.64408748 168.6265681 270.59017691 167.63277487 270.53463268 166.60886669 C270.22249049 160.84809162 269.91345561 155.08715974 269.60667992 149.32609653 C269.41998236 145.83192022 269.23063846 142.33789103 269.04056549 138.84389687 C268.95522389 137.26400496 268.87105558 135.68404914 268.78820038 134.10402489 C268.67704126 131.98567594 268.56180177 129.86758674 268.44555664 127.74951172 C268.38308243 126.58056366 268.32060822 125.4116156 268.25624084 124.20724487 C268.00729053 121.09125205 267.56284933 118.07339781 267 115 C266.55873779 116.10577393 266.11747559 117.21154785 265.6628418 118.35083008 C263.33926402 124.17200064 261.01363865 129.99235235 258.6875 135.8125 C258.2309201 136.95492157 257.77434021 138.09734314 257.30392456 139.27438354 C249.72246912 158.23883153 242.11226515 177.19166501 234.4921875 196.140625 C233.54980448 198.48430675 232.60742678 200.82799064 231.66505432 203.17167664 C227.86377479 212.62508602 224.06247262 222.07848563 220.25814819 231.53067017 C217.53680395 238.29210778 214.81678973 245.05407929 212.09765625 251.81640625 C211.44471242 253.43981399 211.44471242 253.43981399 210.7785778 255.09601784 C206.28053408 266.28283518 201.7992628 277.47570157 197.38232422 288.69482422 C196.84693921 290.05454613 196.84693921 290.05454613 196.30073833 291.44173717 C194.64515926 295.64965737 192.9938461 299.85919264 191.34864807 304.07118225 C190.77857729 305.52523908 190.20850401 306.97929493 189.63842773 308.43334961 C189.38243994 309.0926969 189.12645214 309.75204418 188.86270714 310.43137169 C187.11288492 314.88711508 187.11288492 314.88711508 186 316 C184.40389018 316.09333705 182.80366572 316.11745372 181.20483398 316.11352539 C180.18385117 316.11344986 179.16286835 316.11337433 178.11094666 316.11329651 C177.0005452 316.10813522 175.89014374 316.10297394 174.74609375 316.09765625 C173.61551041 316.0962413 172.48492706 316.09482635 171.32008362 316.09336853 C167.69252935 316.08775019 164.06503576 316.07519458 160.4375 316.0625 C157.98502693 316.05748736 155.5325529 316.05292405 153.08007812 316.04882812 C147.05336455 316.0377748 141.02668661 316.02101884 135 316 C134.67539795 315.16082031 134.3507959 314.32164062 134.01635742 313.45703125 C124.61705915 289.1772727 115.06679888 264.95895667 105.47026062 240.75656128 C101.72095705 231.29967432 97.98353332 221.83812213 94.25 212.375 C93.6407097 210.83089062 93.03141609 209.28678254 92.42211914 207.74267578 C91.2181685 204.69144302 90.01432972 201.64016615 88.81054688 198.58886719 C86.02050517 191.51705961 83.22887495 184.44587904 80.43740845 177.37463379 C78.89441002 173.46592546 77.35150627 169.55717975 75.80859375 165.6484375 C75.18603562 164.07128888 74.56347702 162.49414044 73.94091797 160.91699219 C65.47045898 139.45849609 65.47045898 139.45849609 57 118 C56.67 118 56.34 118 56 118 C55.90088491 119.82165586 55.90088491 119.82165586 55.79976749 121.68011284 C54.23233399 150.48463989 52.66033814 179.2889155 51.08269582 208.09288513 C50.8886743 211.63532652 50.69469142 215.17777003 50.50073242 218.72021484 C50.46211674 219.42547531 50.42350106 220.13073577 50.3837152 220.85736777 C49.7578989 232.28870134 49.13521558 243.72020353 48.51368249 255.1517707 C47.87623791 266.87470928 47.23544411 278.59746129 46.59151691 290.32004559 C46.22982036 296.9073426 45.86970189 303.49471756 45.51327705 310.08230209 C45.17810962 316.27609629 44.83883076 322.46965129 44.49632645 328.66304398 C44.37102145 330.9422748 44.24724972 333.22159048 44.12508583 335.50099182 C43.95872217 338.60090742 43.78696318 341.70047709 43.61378479 344.80001831 C43.5661153 345.71245643 43.51844582 346.62489454 43.4693318 347.5649823 C43.11412121 353.77175758 43.11412121 353.77175758 42 356 C21.54 356 1.08 356 -20 356 C-20 345.00456007 -19.9342919 334.21490059 -19.28541565 323.27178955 C-19.20732474 321.89112138 -19.1296823 320.51042778 -19.05244011 319.12971187 C-18.84230902 315.39636987 -18.62591542 311.66341517 -18.40834224 307.93050051 C-18.17350707 303.88179688 -17.9446662 299.83275349 -17.71502686 295.78375244 C-17.26577551 287.87910823 -16.81107899 279.97478651 -16.3544342 272.07056633 C-15.8223591 262.85746419 -15.29558258 253.64406131 -14.76894998 244.43064675 C-13.82933064 227.99550959 -12.88467025 211.56066604 -11.93725586 195.12597656 C-11.01844356 179.18740758 -10.10365288 163.24861417 -9.19311523 147.30957031 C-8.19990033 129.9233667 -7.20465898 112.53728151 -6.20571464 95.15140605 C-6.09925479 93.29853615 -5.99279504 91.44566624 -5.88633537 89.59279633 C-5.83395799 88.68126577 -5.78158061 87.76973521 -5.72761603 86.83058251 C-5.35881424 80.41020061 -4.99139288 73.98974055 -4.62445259 67.56925201 C-4.1776844 59.75314906 -3.7285051 51.93718895 -3.27627534 44.12140003 C-3.04566367 40.1348984 -2.81608852 36.14834439 -2.5893383 32.16162109 C-2.38177435 28.51282441 -2.17118919 24.8642151 -1.9581871 21.21573195 C-1.84540756 19.27062754 -1.7358325 17.32533815 -1.62637049 15.38004422 C-1.55819493 14.22271118 -1.49001936 13.06537814 -1.41977787 11.8729744 C-1.3624401 10.87647283 -1.30510233 9.87997126 -1.24602705 8.85327268 C-0.99000762 5.88411442 -0.48993785 2.93962712 0 0 Z " fill="#231F20" transform="translate(702,821)"/>
<path d="M0 0 C1.12970215 0.16097168 2.2594043 0.32194336 3.42333984 0.48779297 C81.16262723 11.69491084 155.83135217 44.29114625 216.24853516 94.55273438 C218.66107287 96.54625592 221.11591065 98.48601071 223.5625 100.4375 C234.48052609 109.41166388 244.49601854 119.40961202 254.5 129.375 C255.336521 130.20684814 256.17304199 131.03869629 257.03491211 131.89575195 C261.89568262 136.76919977 266.55118529 141.74824148 271 147 C271.53705566 147.63035156 272.07411133 148.26070312 272.62744141 148.91015625 C290.93327286 170.5408235 306.71593249 193.56085325 321 218 C321.433125 218.73557129 321.86625 219.47114258 322.3125 220.22900391 C349.69460744 266.98181313 366.27490206 320.53064477 374 374 C374.16371094 375.05944824 374.32742188 376.11889648 374.49609375 377.21044922 C380.10725631 414.73220051 379.77083725 456.52680759 374 494 C373.83902832 495.12970215 373.67805664 496.2594043 373.51220703 497.42333984 C361.81671355 578.55029318 326.82834114 656.12735987 273 718 C272.04673828 719.10408203 272.04673828 719.10408203 271.07421875 720.23046875 C269.39483308 722.16465777 267.6990003 724.08302244 266 726 C265.36989014 726.71494629 264.73978027 727.42989258 264.09057617 728.16650391 C258.70019155 734.22733438 253.10899328 740.04710438 247.36108398 745.76928711 C245.93160283 747.19337492 244.50759489 748.62278044 243.08398438 750.05273438 C237.88515181 755.24433126 232.61645217 760.26332979 227 765 C226.37134033 765.53536377 225.74268066 766.07072754 225.0949707 766.62231445 C203.46757366 784.93422304 180.4400206 800.71542175 156 815 C155.26442871 815.433125 154.52885742 815.86625 153.77099609 816.3125 C107.01818687 843.69460744 53.46935523 860.27490206 0 868 C-1.05944824 868.16371094 -2.11889648 868.32742188 -3.21044922 868.49609375 C-40.73220051 874.10725631 -82.52680759 873.77083725 -120 868 C-121.12970215 867.83902832 -122.2594043 867.67805664 -123.42333984 867.51220703 C-201.16262723 856.30508916 -275.83135217 823.70885375 -336.24853516 773.44726562 C-338.66107287 771.45374408 -341.11591065 769.51398929 -343.5625 767.5625 C-354.48052609 758.58833612 -364.49601854 748.59038798 -374.5 738.625 C-375.336521 737.79315186 -376.17304199 736.96130371 -377.03491211 736.10424805 C-381.89568262 731.23080023 -386.55118529 726.25175852 -391 721 C-391.53705566 720.36964844 -392.07411133 719.73929688 -392.62744141 719.08984375 C-410.93327286 697.4591765 -426.71593249 674.43914675 -441 650 C-441.6496875 648.89664307 -441.6496875 648.89664307 -442.3125 647.77099609 C-469.69460744 601.01818687 -486.27490206 547.46935523 -494 494 C-494.24556641 492.41082764 -494.24556641 492.41082764 -494.49609375 490.78955078 C-500.10725631 453.26779949 -499.77083725 411.47319241 -494 374 C-493.83902832 372.87029785 -493.67805664 371.7405957 -493.51220703 370.57666016 C-482.30508916 292.83737277 -449.70885375 218.16864783 -399.44726562 157.75146484 C-397.45374408 155.33892713 -395.51398929 152.88408935 -393.5625 150.4375 C-384.58833612 139.51947391 -374.59038798 129.50398146 -364.625 119.5 C-363.79315186 118.663479 -362.96130371 117.82695801 -362.10424805 116.96508789 C-357.23080023 112.10431738 -352.25175852 107.44881471 -347 103 C-346.36964844 102.46294434 -345.73929688 101.92588867 -345.08984375 101.37255859 C-323.4591765 83.06672714 -300.43914675 67.28406751 -276 53 C-275.26442871 52.566875 -274.52885742 52.13375 -273.77099609 51.6875 C-227.01818687 24.30539256 -173.46935523 7.72509794 -120 0 C-118.41082764 -0.24556641 -118.41082764 -0.24556641 -116.78955078 -0.49609375 C-79.26779949 -6.10725631 -37.47319241 -5.77083725 0 0 Z M-115 20 C-116.2163916 20.16628906 -117.4327832 20.33257813 -118.68603516 20.50390625 C-191.85984386 30.82218715 -261.24448513 60.92772963 -319 107 C-320.5159375 108.19689453 -320.5159375 108.19689453 -322.0625 109.41796875 C-327.92567486 114.12349971 -333.48238064 119.10526645 -338.98046875 124.2265625 C-341.2305385 126.31675587 -343.53414968 128.33369464 -345.859375 130.33984375 C-350.10180469 134.03757263 -354.09582334 137.9477389 -358.0625 141.9375 C-358.73087891 142.60201172 -359.39925781 143.26652344 -360.08789062 143.95117188 C-364.59746791 148.46951413 -368.83814265 153.16175456 -373 158 C-373.92573352 159.0480688 -374.85273572 160.09501895 -375.78125 161.140625 C-400.15640376 188.87526052 -419.40036984 220.1415115 -436 253 C-436.41668945 253.82258301 -436.83337891 254.64516602 -437.26269531 255.49267578 C-456.55403991 293.90809899 -468.11547927 336.55962092 -474 379 C-474.16516113 380.1770752 -474.33032227 381.35415039 -474.50048828 382.56689453 C-479.17282396 417.50552875 -478.8769482 454.10773973 -474 489 C-473.83371094 490.2163916 -473.66742187 491.4327832 -473.49609375 492.68603516 C-463.17781285 565.85984386 -433.07227037 635.24448513 -387 693 C-385.80310547 694.5159375 -385.80310547 694.5159375 -384.58203125 696.0625 C-379.87650029 701.92567486 -374.89473355 707.48238064 -369.7734375 712.98046875 C-367.68324413 715.2305385 -365.66630536 717.53414968 -363.66015625 719.859375 C-359.96242737 724.10180469 -356.0522611 728.09582334 -352.0625 732.0625 C-351.39798828 732.73087891 -350.73347656 733.39925781 -350.04882812 734.08789062 C-345.53048587 738.59746791 -340.83824544 742.83814265 -336 747 C-334.9519312 747.92573352 -333.90498105 748.85273572 -332.859375 749.78125 C-305.12473948 774.15640376 -273.8584885 793.40036984 -241 810 C-240.17741699 810.41668945 -239.35483398 810.83337891 -238.50732422 811.26269531 C-200.09190101 830.55403991 -157.44037908 842.11547927 -115 848 C-113.8229248 848.16516113 -112.64584961 848.33032227 -111.43310547 848.50048828 C-76.49447125 853.17282396 -39.89226027 852.8769482 -5 848 C-3.1754126 847.75056641 -3.1754126 847.75056641 -1.31396484 847.49609375 C71.85984386 837.17781285 141.24448513 807.07227037 199 761 C200.010625 760.20207031 201.02125 759.40414062 202.0625 758.58203125 C207.92567486 753.87650029 213.48238064 748.89473355 218.98046875 743.7734375 C221.2305385 741.68324413 223.53414968 739.66630536 225.859375 737.66015625 C230.10180469 733.96242737 234.09582334 730.0522611 238.0625 726.0625 C238.73087891 725.39798828 239.39925781 724.73347656 240.08789062 724.04882812 C244.59746791 719.53048587 248.83814265 714.83824544 253 710 C253.92573352 708.9519312 254.85273572 707.90498105 255.78125 706.859375 C280.15640376 679.12473948 299.40036984 647.8584885 316 615 C316.41668945 614.17741699 316.83337891 613.35483398 317.26269531 612.50732422 C336.55403991 574.09190101 348.11547927 531.44037908 354 489 C354.16516113 487.8229248 354.33032227 486.64584961 354.50048828 485.43310547 C359.17282396 450.49447125 358.8769482 413.89226027 354 379 C353.75056641 377.1754126 353.75056641 377.1754126 353.49609375 375.31396484 C343.17781285 302.14015614 313.07227037 232.75551487 267 175 C266.20207031 173.989375 265.40414062 172.97875 264.58203125 171.9375 C259.87650029 166.07432514 254.89473355 160.51761936 249.7734375 155.01953125 C247.68324413 152.7694615 245.66630536 150.46585032 243.66015625 148.140625 C239.96242737 143.89819531 236.0522611 139.90417666 232.0625 135.9375 C231.39798828 135.26912109 230.73347656 134.60074219 230.04882812 133.91210938 C225.53048587 129.40253209 220.83824544 125.16185735 216 121 C214.9519312 120.07426648 213.90498105 119.14726428 212.859375 118.21875 C185.12473948 93.84359624 153.8584885 74.59963016 121 58 C120.17741699 57.58331055 119.35483398 57.16662109 118.50732422 56.73730469 C80.09190101 37.44596009 37.44037908 25.88452073 -5 20 C-6.1770752 19.83483887 -7.35415039 19.66967773 -8.56689453 19.49951172 C-43.50552875 14.82717604 -80.10773973 15.1230518 -115 20 Z " fill="#231F20" transform="translate(1059,565)"/>
<path d="M0 0 C41.25 0 82.5 0 125 0 C125 47.85 125 95.7 125 145 C174.5 145 224 145 275 145 C275 97.15 275 49.3 275 0 C296.78 0 318.56 0 341 0 C341 117.48 341 234.96 341 356 C319.22 356 297.44 356 275 356 C275 305.51 275 255.02 275 203 C225.5 203 176 203 125 203 C125 247.55 125 292.1 125 338 C121.47704081 336.23852041 120.93164305 331.79656034 119.68359375 328.23828125 C119.35561798 327.32234695 119.02764221 326.40641266 118.68972778 325.46272278 C117.97586267 323.46707566 117.26523202 321.47026935 116.55740356 319.47247314 C114.64417784 314.07402446 112.70683765 308.68421742 110.7734375 303.29296875 C110.3755452 302.18131348 109.97765289 301.0696582 109.56770325 299.92431641 C105.64047061 288.9634413 101.61227793 278.04107148 97.5625 267.125 C96.14151477 263.29051729 94.72112784 259.45581306 93.30078125 255.62109375 C92.94700912 254.66624084 92.593237 253.71138794 92.22874451 252.7276001 C88.21470093 241.88866157 84.23206262 231.03821929 80.25 220.1875 C73.67967366 202.28686151 67.09453986 184.39173228 60.5 166.5 C51.35482672 141.68667589 42.23084969 116.86562061 33.11651611 92.04095459 C30.42781323 84.71797619 27.73865007 77.39516687 25.04907227 70.07250977 C23.53470979 65.94949369 22.02092934 61.82626463 20.50756836 57.70288086 C16.93785295 47.97915944 13.3586122 38.25913199 9.7578125 28.546875 C8.77498517 25.8925719 7.79233147 23.23820458 6.80969238 20.58383179 C5.89602077 18.1192035 4.97884164 15.65589984 4.06152344 13.19262695 C3.51740928 11.72353258 2.97345386 10.25437939 2.4296875 8.78515625 C2.18066681 8.12002014 1.93164612 7.45488403 1.67507935 6.76959229 C0 2.22749928 0 2.22749928 0 0 Z " fill="#231F20" transform="translate(975,821)"/>
</svg>
