<?xml version="1.0" standalone="no"?>
<!DOCTYPE svg PUBLIC "-//W3C//DTD SVG 20010904//EN"
 "http://www.w3.org/TR/2001/REC-SVG-20010904/DTD/svg10.dtd">
<svg version="1.0" xmlns="http://www.w3.org/2000/svg"
 width="2000.000000pt" height="2000.000000pt" viewBox="0 0 2000.000000 2000.000000"
 preserveAspectRatio="xMidYMid meet">
<metadata>
Created by potrace 1.14, written by Peter Selinger 2001-2017
</metadata>
<g transform="translate(0.000000,2000.000000) scale(0.100000,-0.100000)"
fill="#000000" stroke="none">
<path d="M9749 14376 c-2 -2 -47 -7 -99 -10 -52 -4 -108 -8 -125 -10 -16 -2
-57 -7 -90 -11 -32 -4 -66 -8 -75 -10 -8 -1 -37 -6 -65 -10 -84 -11 -323 -63
-440 -95 -60 -17 -117 -33 -125 -35 -8 -2 -69 -21 -135 -44 -523 -175 -1048
-475 -1457 -831 -147 -128 -396 -380 -493 -500 -20 -25 -52 -63 -70 -85 -97
-118 -236 -318 -329 -476 -31 -52 -61 -101 -66 -109 -36 -55 -196 -390 -244
-510 -54 -133 -117 -312 -136 -385 -83 -309 -122 -494 -145 -690 -3 -33 -8
-71 -10 -84 -27 -169 -27 -714 0 -951 13 -115 27 -207 50 -325 9 -49 19 -101
21 -114 31 -163 141 -520 216 -701 22 -52 44 -108 50 -124 37 -99 229 -461
298 -561 16 -24 30 -46 30 -50 0 -5 39 -64 50 -75 3 -3 10 -12 15 -22 33 -54
219 -304 245 -328 3 -3 30 -34 60 -70 176 -209 423 -440 685 -643 112 -86 360
-247 500 -325 454 -251 998 -438 1461 -501 44 -7 90 -13 101 -15 11 -3 56 -7
99 -11 43 -4 88 -10 99 -12 35 -9 597 -11 680 -3 44 5 114 11 154 15 41 3 77
8 80 10 4 1 35 6 70 9 35 4 67 8 70 10 3 2 29 7 56 10 53 7 350 71 400 86 244
75 421 136 510 175 17 7 55 23 85 36 101 42 364 177 482 248 213 127 503 336
652 470 131 118 288 275 398 396 50 55 214 259 238 295 8 13 24 35 36 49 56
71 188 276 268 418 189 336 372 806 441 1133 2 8 8 35 14 60 5 25 12 59 15 75
3 17 8 41 11 55 8 34 43 274 49 330 28 260 29 779 1 951 -2 13 -6 47 -9 74
-18 162 -56 356 -106 551 -39 151 -115 388 -152 474 -11 25 -21 52 -23 60 -6
26 -95 221 -158 345 -144 284 -338 579 -539 820 -9 11 -26 31 -38 45 -61 73
-269 288 -362 374 -449 414 -1008 744 -1588 936 -214 71 -560 153 -739 175
-30 4 -62 8 -71 10 -9 2 -53 6 -96 10 -43 4 -88 9 -99 12 -24 6 -600 14 -606
9z m551 -200 c98 -9 157 -15 200 -21 19 -2 55 -7 80 -10 40 -5 68 -10 185 -30
17 -3 37 -8 45 -10 8 -2 31 -7 50 -10 68 -11 306 -76 430 -116 445 -146 891
-384 1260 -671 291 -228 571 -513 791 -808 244 -327 455 -724 589 -1105 32
-92 81 -243 85 -265 2 -8 15 -60 29 -115 14 -55 28 -116 31 -135 3 -19 10 -53
15 -75 9 -40 28 -154 35 -210 2 -16 6 -46 9 -65 36 -237 40 -645 10 -960 -3
-30 -7 -66 -10 -80 -2 -14 -6 -45 -9 -70 -49 -403 -217 -927 -426 -1327 -275
-527 -645 -976 -1119 -1357 -25 -20 -51 -41 -58 -47 -27 -22 -249 -176 -292
-203 -25 -15 -67 -41 -95 -58 -359 -220 -891 -431 -1267 -502 -248 -47 -265
-49 -373 -62 -33 -3 -69 -8 -80 -10 -92 -17 -565 -24 -725 -10 -147 13 -253
24 -300 32 -155 25 -228 39 -300 56 -47 11 -95 21 -106 24 -37 7 -194 53 -309
90 -266 86 -578 231 -840 389 -88 53 -169 105 -181 116 -11 10 -24 19 -28 19
-6 0 -239 172 -262 195 -6 5 -30 26 -54 45 -71 57 -138 119 -251 230 -287 283
-490 548 -713 930 -22 37 -164 324 -196 395 -53 116 -168 451 -195 565 -2 8
-15 62 -29 120 -26 103 -60 282 -71 370 -3 25 -8 56 -10 70 -5 27 -10 87 -21
225 -22 270 -5 662 41 950 12 73 39 213 60 305 18 81 66 257 82 300 4 8 7 20
8 25 32 132 222 563 329 750 19 33 42 74 52 90 66 118 199 310 313 455 129
164 179 219 341 380 531 532 1209 914 1935 1094 88 21 130 30 235 51 22 4 93
16 180 30 104 16 163 22 305 30 61 4 111 8 112 9 6 5 412 -2 483 -8z"/>
<path d="M7037 11782 c-12 -3 -17 -15 -18 -45 -1 -23 -2 -60 -4 -82 -1 -22 -5
-94 -9 -160 -10 -181 -15 -271 -21 -365 -3 -47 -7 -128 -10 -180 -5 -89 -8
-149 -20 -345 -3 -44 -7 -125 -10 -180 -3 -55 -7 -136 -10 -180 -5 -78 -11
-180 -20 -355 -3 -47 -7 -121 -10 -165 -2 -44 -7 -125 -10 -180 -3 -55 -8
-131 -10 -170 -2 -38 -7 -119 -10 -180 -3 -60 -8 -137 -10 -170 -2 -33 -7
-114 -10 -180 -4 -66 -9 -142 -10 -170 -8 -116 -18 -324 -19 -379 l-1 -60 307
0 308 -1 1 30 c0 17 2 48 4 70 1 22 6 99 9 170 14 263 16 292 21 380 11 191
15 254 20 365 3 63 8 149 10 190 7 107 18 303 30 535 3 50 7 133 10 185 7 106
11 187 21 370 3 69 8 127 10 129 2 2 8 -7 13 -20 5 -13 71 -179 145 -369 75
-190 141 -354 146 -365 5 -11 77 -193 160 -405 83 -212 195 -494 247 -628 l97
-242 245 2 246 3 143 355 c78 195 239 598 358 895 119 297 222 554 229 570 7
17 30 74 51 127 21 53 41 94 44 92 2 -3 5 -17 6 -32 2 -32 13 -228 19 -327 2
-38 6 -122 10 -185 7 -146 13 -258 20 -385 13 -220 15 -254 20 -355 3 -58 7
-141 10 -185 2 -44 7 -129 10 -190 3 -60 8 -141 10 -180 3 -38 7 -115 10 -170
18 -369 21 -414 29 -422 11 -11 938 -9 942 2 2 6 -5 35 -17 65 -11 30 -31 84
-44 120 -13 36 -37 101 -53 145 -16 44 -73 197 -125 340 -52 143 -114 310
-137 370 -23 61 -43 115 -44 120 -2 6 -6 17 -9 25 -4 8 -22 58 -41 110 -40
111 -101 280 -146 400 -32 85 -99 270 -126 345 -8 22 -17 47 -21 55 -3 8 -7
20 -9 25 -2 9 -101 277 -144 390 -25 64 -336 916 -341 933 -3 8 -31 -53 -63
-135 -32 -81 -64 -161 -71 -178 -7 -16 -45 -111 -83 -210 -39 -99 -129 -328
-200 -510 -72 -181 -150 -382 -175 -445 -315 -805 -289 -740 -298 -740 -8 0
-16 20 -138 340 -49 129 -173 456 -276 725 -103 270 -198 517 -210 550 -39
106 -146 389 -160 420 -7 17 -32 82 -55 145 -24 63 -47 119 -51 124 -7 8 -672
15 -712 8z"/>
<path d="M9768 11779 c-8 -5 4 -49 33 -114 4 -11 19 -51 33 -90 13 -38 88
-243 166 -455 78 -212 159 -432 180 -490 52 -143 217 -590 247 -670 13 -36 26
-69 27 -75 2 -5 6 -17 9 -25 4 -8 72 -195 152 -415 80 -220 152 -416 160 -435
72 -186 205 -553 205 -569 0 -8 3 -11 7 -7 5 4 8 305 8 669 l0 662 753 1 c674
0 752 -1 753 -15 0 -9 1 -352 1 -763 1 -412 4 -748 7 -749 27 -4 635 -3 642 2
5 3 8 723 7 1774 l-3 1768 -310 0 c-170 -1 -317 -2 -326 -2 -14 -1 -16 -67
-17 -708 0 -390 -1 -715 -1 -724 -1 -15 -67 -16 -753 -17 l-753 0 0 720 c0
396 -2 723 -5 726 -6 9 -1208 9 -1222 1z"/>
</g>
</svg>
